<svg width="208" height="35" viewBox="0 0 208 35" fill="none" xmlns="http://www.w3.org/2000/svg">
<mask id="mask0" mask-type="alpha" maskUnits="userSpaceOnUse" x="0" y="0" width="208" height="35">
<rect width="208" height="35" fill="#C4C4C4"/>
</mask>
<g mask="url(#mask0)">
<path d="M65.4397 9.62695C67.0773 9.62695 68.657 10.0216 69.9323 10.6743V14.4387C68.744 13.6039 67.1208 12.9663 65.4686 12.9663C62.3383 12.9663 60.1934 15.2584 60.1934 18.3246C60.1934 21.3452 62.2658 23.7283 65.5991 23.7283C67.2802 23.7283 68.8309 23.1211 70.1787 22.1649V25.9596C68.7874 26.7338 67.0483 27.0829 65.4397 27.0829C60.2368 27.0829 56.6427 23.3185 56.6427 18.3853C56.6282 13.4521 60.2368 9.62695 65.4397 9.62695Z" fill="#3BC6FB"/>
<path d="M75.2222 18.3549C75.2222 13.4217 78.8598 9.62695 83.6713 9.62695C88.4684 9.62695 92.1205 13.4217 92.1205 18.3549C92.1205 23.2881 88.4828 27.0829 83.6713 27.0829C78.8743 27.0829 75.2222 23.2881 75.2222 18.3549ZM88.5698 18.3549C88.5698 15.3646 86.4684 12.9967 83.6713 12.9967C80.8743 12.9967 78.7728 15.3646 78.7728 18.3549C78.7728 21.3452 80.8743 23.7131 83.6713 23.7131C86.4684 23.7131 88.5698 21.3452 88.5698 18.3549Z" fill="#3BC6FB"/>
<path d="M97.1348 9.86987H101.671C108.106 9.86987 111.569 12.8905 111.569 18.3246C111.569 23.5159 108.439 26.8249 101.512 26.8249H97.1348V9.86987ZM101.671 23.5614C106.135 23.5614 108.019 21.664 108.019 18.3246C108.019 16.5487 107.352 15.0459 106.135 14.1656C104.99 13.3307 103.454 13.1334 101.642 13.1334H100.685V23.5766H101.671V23.5614Z" fill="#3BC6FB"/>
<path d="M116.584 9.86987H126.569V13.1182H120.135V16.4424H125.671V19.5389H120.135V23.5614H126.816V26.8097H116.584V9.86987Z" fill="#3BC6FB"/>
<path d="M131.656 9.86987H135.207V23.5614H142.294V26.8097H131.656V9.86987Z" fill="#3BC6FB"/>
<path d="M147.308 9.86987H150.859V26.8097H147.308V9.86987Z" fill="#3BC6FB"/>
<path d="M161.09 13.1334H155.859V9.86987H169.873V13.1182H164.641V26.8097H161.09V13.1334Z" fill="#3BC6FB"/>
<path d="M179.25 13.1334H174.018V9.86987H188.032V13.1182H182.8V26.8097H179.25V13.1334Z" fill="#3BC6FB"/>
<path d="M43.9037 12.177L42.2081 8.91354L37.1502 11.7824V10.7047C37.1502 8.95908 36.556 7.47153 35.3821 6.22685C34.2082 4.99734 32.7735 4.375 31.0923 4.375C29.4402 4.375 28.0199 4.99734 26.846 6.22685C25.6576 7.45635 25.0779 8.95908 25.0779 10.7199V18.6433L19.136 22.0131L20.8316 25.2766L25.0634 22.8631V25.1551C25.0634 26.9007 25.6431 28.3883 26.817 29.633C27.9909 30.8777 29.4112 31.4848 31.0923 31.4848C32.759 31.4848 34.1792 30.8625 35.3676 29.633C36.556 28.4035 37.1357 26.9007 37.1357 25.14V16.0173L43.9037 12.177ZM28.8025 10.6288C28.8025 9.99126 29.0199 9.45999 29.4547 9.0198C29.8894 8.5796 30.3967 8.35192 31.0054 8.35192C31.6141 8.35192 32.1213 8.5796 32.5416 9.0198C32.9619 9.45999 33.1793 10.0064 33.1793 10.6288V14.0441L28.8025 16.5183V10.6288ZM33.1793 25.1248C33.1793 25.7623 32.9619 26.2936 32.5416 26.7338C32.1213 27.174 31.5996 27.4016 31.0054 27.4016C30.3967 27.4016 29.8894 27.174 29.4547 26.7338C29.0199 26.2936 28.8025 25.7471 28.8025 25.1248V20.7532L33.1793 18.2639V25.1248Z" fill="#3BC6FB"/>
</g>
</svg>
