<?xml version="1.0" encoding="UTF-8" standalone="no"?>
<svg
   xmlns:dc="http://purl.org/dc/elements/1.1/"
   xmlns:cc="http://creativecommons.org/ns#"
   xmlns:rdf="http://www.w3.org/1999/02/22-rdf-syntax-ns#"
   xmlns:svg="http://www.w3.org/2000/svg"
   xmlns="http://www.w3.org/2000/svg"
   version="1.1"
   id="svg3611"
   viewBox="0 0 2434.8369 2545.9894"
   height="718.53479mm"
   width="687.1651mm">
  <defs
     id="defs3613">
    <linearGradient
       id="linearGradient3802"
       spreadMethod="pad"
       gradientTransform="matrix(2434.8877,0,0,2434.8877,-691.71666,340.9508)"
       gradientUnits="userSpaceOnUse"
       y2="0"
       x2="1"
       y1="0"
       x1="0">
      <stop
         id="stop3804"
         offset="0"
         style="stop-opacity:1;stop-color:#3bc7fc" />
      <stop
         id="stop3806"
         offset="0.478795"
         style="stop-opacity:1;stop-color:#3fe2d3" />
      <stop
         id="stop3808"
         offset="1"
         style="stop-opacity:1;stop-color:#3fe2d3" />
    </linearGradient>
  </defs>
  <metadata
     id="metadata3616">
    <rdf:RDF>
      <cc:Work
         rdf:about="">
        <dc:format>image/svg+xml</dc:format>
        <dc:type
           rdf:resource="http://purl.org/dc/dcmitype/StillImage" />
        <dc:title></dc:title>
      </cc:Work>
    </rdf:RDF>
  </metadata>
  <g
     transform="translate(691.70426,932.06111)"
     id="layer1">
    <path
       id="path3810"
       style="fill:url(#linearGradient3802);stroke:none"
       d="m 65.681912,-758.52576 c -116.322105,115.71895 -174.483172,256.16712 -174.483172,421.34452 l 0,0 0,744.54764 -582.903,316.22382 166.29754,306.74568 416.60546,-225.92337 0,214.72197 c 0,163.8849 57.557899,303.9885 172.587549,420.3106 l 0,0 C 178.72976,1555.8533 318.91944,1613.9283 484.183,1613.9283 l 0,0 c 163.79875,0 303.98842,-57.7303 420.22437,-173.4493 l 0,0 c 116.40833,-115.7189 174.56933,-256.0809 174.56933,-421.3445 l 0,0 0,-858.80178 664.1561,-360.16771 -166.2974,-306.83186 -497.8587,270.03961 0,-100.554 c 0,-163.88492 -57.8164,-303.98844 -173.53535,-420.3967 l 0,0 C 789.72239,-873.81389 649.27422,-932.06111 484.183,-932.06111 l 0,0 c -162.67863,0 -302.17898,57.90257 -418.501088,173.53535 m 192.405368,413.41739 c 0,-59.53969 21.11031,-110.0321 63.41709,-151.73573 l 0,0 c 42.30678,-41.61746 93.23002,-62.46928 152.68354,-62.46928 l 0,0 c 59.53969,0 110.0321,20.85182 151.73573,62.46928 l 0,0 c 41.61746,41.70363 62.38311,92.19604 62.38311,151.73573 l 0,0 0,320.273526 -430.21947,233.333534 0,-553.60706 z m 63.41709,1511.92887 c -42.30678,-41.6174 -63.41709,-92.196 -63.41709,-151.6495 l 0,0 0,-409.71236 430.21947,-233.24736 0,642.95972 c 0,59.4535 -20.76565,110.0321 -62.38311,151.6495 l 0,0 c -41.70363,41.6175 -92.19604,62.4693 -151.73573,62.4693 l 0,0 c -59.45352,0 -110.37676,-20.8518 -152.68354,-62.4693" />
  </g>
</svg>
